<svg width="320" height="140" viewBox="0 0 320 140" fill="none" xmlns="http://www.w3.org/2000/svg">
<g clip-path="url(#clip0)">
<path d="M12.6228 33.6858H32.1119V31.65H12.6228V3.43828H34.0247L46.9542 22.1677H47.7031L45.1226 1.24866H2.71582V63.2909H12.6408L12.6228 33.6858ZM82.3955 64.2772C88.8287 64.3495 94.125 62.4676 98.3928 58.8484C99.4787 57.9057 100.481 56.8703 101.388 55.7539C105.99 49.9903 108.291 42.8153 108.291 34.1292V1.25771H105.855V35.7669C105.855 35.7669 106.017 60.3503 82.8737 60.9113C82.8737 60.9113 70.5667 61.6532 65.4959 48.3255C64.0924 43.6987 63.363 38.8928 63.3305 34.0568V1.25771H52.9002V34.0477C52.8165 37.998 53.5258 41.9249 54.9859 45.5947C56.446 49.2646 58.6272 52.6026 61.3996 55.4101C64.1025 58.2573 67.3623 60.5144 70.9751 62.0402C74.5878 63.566 78.4758 64.3275 82.3955 64.2772ZM181.835 1.26676H172.984V63.309H181.835V1.26676ZM200.783 56.6587C207.563 62.2731 216.278 64.9782 225.036 64.1867C229.253 63.9935 233.382 62.9067 237.15 60.9978C240.918 59.0889 244.24 56.4013 246.898 53.1119C252.474 46.4616 254.594 38.6351 253.358 29.8947C252.807 25.5952 251.413 21.4477 249.256 17.6912C247.098 13.9347 244.221 10.6435 240.789 8.00753C233.953 2.35207 225.19 -0.412765 216.356 0.298612C207.333 1.01039 200.076 4.73215 194.584 11.4639C191.917 14.6649 189.96 18.3996 188.846 22.4188C187.732 26.438 187.486 30.6493 188.124 34.7716C189.281 43.4557 193.824 51.3259 200.756 56.6587H200.783ZM196.668 12.7849C199.055 9.66436 202.573 7.61303 206.458 7.07558C210.668 6.52519 214.948 7.00004 218.936 8.45993C223.882 10.2836 228.582 12.7149 232.931 15.6983C240.212 20.4667 245.066 26.1941 247.511 32.9529C249.957 39.7118 249.154 45.6201 245.202 50.7051C240.997 55.5277 235.277 57.6359 228.203 57.0387C221.129 56.4416 214.127 53.4195 207.243 47.9907C200.359 42.5619 195.892 36.6898 193.88 30.0937C191.868 23.4977 192.743 17.8337 196.695 12.7577L196.668 12.7849ZM102.246 97.6643L87.8091 109.581L64.738 77.0077H50.049L57.3665 85.5762V139.05H59.6943V88.3811L95.7221 139.05H109.175L89.2618 111.58L126.878 80.455L126.968 139.05H136.351V77.0168H126.968L102.246 97.6643ZM261.154 77.0168L259.891 75.2072L221.508 102.206V77.1434H212.323V139.095H221.436V107.59L250.823 139.05H264.276L227.716 100.587L261.154 77.0168ZM294.592 137.041H279.091V108.839H300.204V107.029H279.091V78.8264H292.923L319.693 90.6612L307.125 77.0168H269.166V139.05H309.768L319.946 124.519L294.592 137.041ZM2.75191 139.05H15.5371L2.69777 123.008L2.75191 139.05ZM259.205 63.2004H261.533V13.4363L303.452 63.2909H313.81V1.25771H311.483V53.6819L265.467 1.25771H248.414L259.241 10.9572L259.205 63.2004ZM48.5152 117.335C46.9345 115.625 45.1841 114.082 43.291 112.729C41.4645 111.508 39.5389 110.442 37.5345 109.544C35.4142 108.567 33.9886 107.952 33.1946 107.681C32.4006 107.409 31.778 107.147 31.3359 107.056C22.6651 104.487 15.9973 101.474 11.3325 98.1077C10.6468 97.6191 10.0242 97.1396 9.43775 96.651C8.85127 96.1624 4.92639 92.6337 4.80909 88.8244C4.66473 84.6714 8.30089 82.3099 9.97009 81.6313C12.5145 80.5998 23.8019 75.551 37.3902 86.8067C41.2302 91.093 44.0363 96.2072 45.5918 101.754H46.1061L45.5918 81.6403C42.4068 79.1612 38.2473 77.4782 33.0232 76.501C28.0516 75.6005 22.9649 75.5393 17.9732 76.3201C14.8126 76.8112 11.7602 77.8458 8.95052 79.3783H8.88736L8.80616 79.4416C7.5868 80.1212 6.43032 80.9085 5.35046 81.7941C3.66235 83.1149 2.30352 84.8111 1.38122 86.7487C0.458925 88.6864 -0.0015753 90.8126 0.0360719 92.9594C-0.0483078 96.3722 0.874537 99.734 2.68876 102.623C4.35192 105.338 6.66575 107.593 9.41971 109.182C12.3518 110.953 15.431 112.467 18.6229 113.706C21.9884 115.037 25.3538 116.421 28.8005 117.778C32.0017 119.129 35.1068 120.698 38.0939 122.474C40.9676 124.183 43.3953 126.552 45.1768 129.387C47.0696 132.486 48.1094 136.032 48.1904 139.665C50.2678 137.034 51.7488 133.98 52.5303 130.717C53.0785 128.253 52.9884 125.689 52.2686 123.27C51.3972 121.083 50.1377 119.072 48.5513 117.335H48.5152ZM178.785 75.9762C169.951 75.2649 161.188 78.0297 154.352 83.6852C150.92 86.3212 148.043 89.6123 145.886 93.3688C143.728 97.1253 142.334 101.273 141.783 105.572C140.547 114.349 142.685 122.148 148.243 128.79C150.9 132.08 154.222 134.769 157.991 136.68C161.759 138.59 165.888 139.678 170.105 139.873C178.864 140.662 187.58 137.954 194.359 132.336C201.291 127.004 205.833 119.133 206.99 110.449C207.628 106.327 207.382 102.116 206.268 98.0964C205.154 94.0772 203.198 90.3425 200.53 87.1415C195.044 80.4098 187.787 76.688 178.758 75.9762H178.785ZM201.234 105.835C199.222 112.431 194.701 118.348 187.871 123.732C181.041 129.115 173.976 132.083 166.884 132.698C159.792 133.314 154.09 131.214 149.885 126.365C145.934 121.289 145.14 115.371 147.576 108.612C150.012 101.854 154.875 96.1352 162.156 91.3579C166.505 88.3744 171.206 85.943 176.151 84.1195C180.139 82.6596 184.419 82.1847 188.629 82.7351C192.514 83.2726 196.032 85.3239 198.419 88.4444C202.371 93.5204 203.255 99.302 201.234 105.78V105.835ZM123.638 33.3963C126.57 35.1674 129.65 36.6811 132.842 37.9203C136.207 39.2503 139.573 40.6347 143.019 42.0009C146.22 43.3513 149.326 44.9203 152.313 46.6969C155.187 48.4056 157.614 50.7749 159.395 53.6096C161.289 56.708 162.329 60.2549 162.409 63.8881C164.486 61.2566 165.967 58.203 166.749 54.9396C167.297 52.4757 167.207 49.9121 166.487 47.4931C165.616 45.3058 164.356 43.2949 162.77 41.5576C161.189 39.8481 159.439 38.305 157.546 36.9521C155.719 35.7304 153.794 34.665 151.789 33.7672C149.66 32.7901 148.252 32.1748 147.449 31.9034C146.646 31.6319 146.033 31.3695 145.591 31.279C136.92 28.7094 130.252 25.6964 125.587 22.3305C124.902 21.842 124.279 21.3534 123.693 20.8738C123.106 20.3943 119.181 16.8565 119.064 13.0382C118.91 8.88518 122.556 6.52365 124.225 5.84505C126.769 4.81358 138.057 -0.235215 151.645 11.0205C155.485 15.3068 158.291 20.421 159.847 25.9679H160.361L159.847 5.85409C156.662 3.37494 152.502 1.69201 147.278 0.714827C142.306 -0.184893 137.22 -0.246051 132.228 0.533869C129.068 1.02572 126.015 2.06027 123.205 3.59209H123.142L122.998 3.65543C121.779 4.33601 120.623 5.12324 119.542 6.00792C117.847 7.33468 116.484 9.03967 115.562 10.9874C114.639 12.935 114.182 15.0717 114.228 17.2275C114.144 20.6402 115.067 24.0018 116.88 26.8907C118.544 29.6059 120.857 31.8609 123.611 33.4506" fill="white"/>
</g>
<defs>
<clipPath id="clip0">
<rect width="320" height="140" fill="white"/>
</clipPath>
</defs>
</svg>
